<?xml version="1.0"?>
<svg xmlns="http://www.w3.org/2000/svg" viewBox="0 0 1024 1024" width="1024" height="1024">
  <title>n_ icon</title>
  <desc>App icon · #tile, #n, #cursor.</desc>
  
  <g id="glyphs" transform="translate(226.40, 344.00)">
    <path id="n" d="M75 336L0 336L0 6L73.20 6L73.20 69L74.40 69Q78.60 40.20 97.20 22.80L97.20 22.80Q120.60 0 162 0L162 0Q210.60 0 239.70 32.40Q268.80 64.80 268.80 119.40L268.80 119.40L268.80 336L193.80 336L193.80 127.20Q193.80 97.20 178.20 81Q162.60 64.80 134.40 64.80L134.40 64.80Q106.80 64.80 90.90 81.60Q75 98.40 75 129.60L75 129.60L75 336Z" fill="#1A1B22"></path>
    <path id="cursor" d="M288 67.80L0 67.80L0 0L288 0L288 67.80Z" fill="#3F5870" transform="translate(283.20, 268.20)"></path>
  </g>
</svg>