<?xml version="1.0"?>
<svg xmlns="http://www.w3.org/2000/svg" viewBox="0 0 1836.80 268.00" width="1837" height="268">
  <title>nock_ terminal — sub-product lockup</title>
  <desc>nock_ master with terminal sub-product. Cursor #cursor uses accent.</desc>
  <rect id="bg" width="1836.80" height="268.00" fill="#F6F4EE"></rect>
  <g id="lockup" transform="translate(60, 60)">
    <path id="nock" d="M21.60 146L0 146L0 36L21.40 36L21.40 57L21.80 57Q23.00 47.40 29.20 41.40L29.20 41.40Q37 34 50.80 34L50.80 34Q67.20 34 77.00 44.50Q86.80 55 86.80 72.80L86.80 72.80L86.80 146L65.20 146L65.20 75.20Q65.20 64.40 59.40 58.60Q53.60 52.80 43.60 52.80L43.60 52.80Q33.40 52.80 27.50 58.90Q21.60 65 21.60 76.60L21.60 76.60L21.60 146ZM163.20 147.80L163.20 147.80Q149.60 147.80 139.60 142.60Q129.60 137.40 124.20 127.80Q118.80 118.20 118.80 105.20L118.80 105.20L118.80 76.80Q118.80 63.60 124.20 54.10Q129.60 44.60 139.60 39.40Q149.60 34.20 163.20 34.20L163.20 34.20Q176.80 34.20 186.80 39.40Q196.80 44.60 202.20 54.10Q207.60 63.60 207.60 76.80L207.60 76.80L207.60 105.20Q207.60 118.20 202.20 127.80Q196.80 137.40 186.80 142.60Q176.80 147.80 163.20 147.80ZM163.20 128.80L163.20 128.80Q174.20 128.80 180.20 122.70Q186.20 116.60 186.20 105.20L186.20 105.20L186.20 76.80Q186.20 65.20 180.20 59.20Q174.20 53.20 163.20 53.20L163.20 53.20Q152.40 53.20 146.30 59.20Q140.20 65.20 140.20 76.80L140.20 76.80L140.20 105.20Q140.20 116.60 146.30 122.70Q152.40 128.80 163.20 128.80ZM284 148L284 148Q270.40 148 260.10 142.90Q249.80 137.80 244.30 128.10Q238.80 118.40 238.80 105.40L238.80 105.40L238.80 76.60Q238.80 63.40 244.30 53.80Q249.80 44.20 260.10 39.10Q270.40 34 284 34L284 34Q303.80 34 315.80 44.40Q327.80 54.80 328.40 72.80L328.40 72.80L306.80 72.80Q306.20 63.40 300.20 58.20Q294.20 53 284 53L284 53Q273 53 266.60 59.10Q260.20 65.20 260.20 76.40L260.20 76.40L260.20 105.40Q260.20 116.60 266.60 122.80Q273 129 284 129L284 129Q294.20 129 300.20 123.80Q306.20 118.60 306.80 109.20L306.80 109.20L328.40 109.20Q327.80 127.20 315.80 137.60Q303.80 148 284 148ZM382.20 146L360.60 146L360.60 0L382.20 0L382.20 80.20L401.60 80.20L430.80 36L455.20 36L420.20 88.80L455.80 146L431 146L401.60 98.80L382.20 98.80L382.20 146Z" fill="#1A1B22"></path>
    <path id="cursor" d="M96 18.80L0 18.80L0 0L96 0L96 18.80Z" fill="#3F5870" transform="translate(461.80, 129.20)"></path>
    <rect id="divider" x="665.80" y="14.80" width="2" height="118.40" fill="#1A1B22" fill-opacity="0.28"></rect>
    <path id="sub" d="M93.00 156.40L62.20 156.40Q47.20 156.40 38.80 148.20Q30.40 140 30.40 125.40L30.40 125.40L30.40 66L0 66L0 46.40L30.40 46.40L30.40 15.40L52 15.40L52 46.40L95.00 46.40L95.00 66L52 66L52 125.40Q52 136.80 63 136.80L63 136.80L93.00 136.80L93.00 156.40ZM170.20 158.40L170.20 158.40Q156.80 158.40 146.70 153.10Q136.60 147.80 131.20 138.20Q125.80 128.60 125.80 115.80L125.80 115.80L125.80 87Q125.80 74 131.20 64.50Q136.60 55 146.70 49.70Q156.80 44.40 170.20 44.40L170.20 44.40Q183.80 44.40 193.80 49.70Q203.80 55 209.20 64.50Q214.60 74 214.60 87L214.60 87L214.60 106.60L146.60 106.60L146.60 115.80Q146.60 128 152.70 134.40Q158.80 140.80 170.40 140.80L170.40 140.80Q179.80 140.80 185.60 137.50Q191.40 134.20 192.80 127.80L192.80 127.80L214.20 127.80Q211.80 141.80 199.80 150.10Q187.80 158.40 170.20 158.40ZM146.60 92L193.80 91.80L193.80 86.80Q193.80 74.80 187.80 68.20Q181.80 61.60 170.20 61.60L170.20 61.60Q158.80 61.60 152.70 68.20Q146.60 74.80 146.60 87L146.60 87L146.60 92ZM272.20 156.40L250.60 156.40L250.60 46.40L271.40 46.40L271.40 66.80Q273.40 58.80 277.80 53.40L277.80 53.40Q285.60 44.40 301 44.40L301 44.40Q318.60 44.40 328.90 55.30Q339.20 66.20 339.20 85.20L339.20 85.20L339.20 92.60L317 92.60L317 87Q317 75.20 311.10 68.90Q305.20 62.60 294.60 62.60Q284 62.60 278.10 69Q272.20 75.40 272.20 87L272.20 87L272.20 156.40ZM381.40 156.40L362 156.40L362 46.40L380 46.40L380 60.40L381.20 60.40Q382.20 54 386 49.80L386 49.80Q391 44.40 399.40 44.40L399.40 44.40Q408.40 44.40 413.40 51.40L413.40 51.40Q416 55.20 417.20 60.40L417.20 60.40L418 60.40Q419 54 423 49.80L423 49.80Q428 44.40 436.60 44.40L436.60 44.40Q446.80 44.40 452.60 52.10Q458.40 59.80 458.40 72.60L458.40 72.60L458.40 156.40L439.20 156.40L439.20 73.20Q439.20 67 436.50 63.60Q433.80 60.20 428.80 60.20Q423.80 60.20 421.10 63.50Q418.40 66.80 418.40 73L418.40 73L418.40 156.40L402.20 156.40L402.20 73.20Q402.20 66.80 399.40 63.50Q396.60 60.20 391.40 60.20L391.40 60.20Q386.40 60.20 383.90 63.50Q381.40 66.80 381.40 73L381.40 73L381.40 156.40ZM581.40 156.40L486.40 156.40L486.40 136.80L525 136.80L525 66L491.40 66L491.40 46.40L546 46.40L546 136.80L581.40 136.80L581.40 156.40ZM533.40 27.40L533.40 27.40Q526.40 27.40 522.20 23.70Q518 20 518 13.80L518 13.80Q518 7.40 522.20 3.70Q526.40 0 533.40 0L533.40 0Q540.40 0 544.60 3.70Q548.80 7.40 548.80 13.80L548.80 13.80Q548.80 20 544.60 23.70Q540.40 27.40 533.40 27.40ZM628.60 156.40L607 156.40L607 46.40L628.40 46.40L628.40 67.40L628.80 67.40Q630 57.80 636.20 51.80L636.20 51.80Q644 44.40 657.80 44.40L657.80 44.40Q674.20 44.40 684 54.90Q693.80 65.40 693.80 83.20L693.80 83.20L693.80 156.40L672.20 156.40L672.20 85.60Q672.20 74.80 666.40 69Q660.60 63.20 650.60 63.20L650.60 63.20Q640.40 63.20 634.50 69.30Q628.60 75.40 628.60 87L628.60 87L628.60 156.40ZM759.20 158.40L759.20 158.40Q742 158.40 732.10 149.50Q722.20 140.60 722.20 125.20L722.20 125.20Q722.20 109.60 732.70 100.70Q743.20 91.80 761.60 91.80L761.60 91.80L792.20 91.80L792.20 81.60Q792.20 72.60 786.60 67.60Q781 62.60 770.80 62.60L770.80 62.60Q761.80 62.60 755.80 66.50Q749.80 70.40 748.80 76.80L748.80 76.80L727.60 76.80Q729.40 62 741.30 53.20Q753.20 44.40 771.40 44.40L771.40 44.40Q791 44.40 802.40 54.30Q813.80 64.20 813.80 81.20L813.80 81.20L813.80 156.40L792.80 156.40L792.80 136.20L792.60 136.20Q791.20 145.40 783.60 151.20L783.60 151.20Q774.40 158.40 759.20 158.40ZM765.60 141.80L765.60 141.80Q777.20 141.80 784.70 135.90Q792.20 130 792.20 120.80L792.20 120.80L792.20 106.40L762 106.40Q753.60 106.40 748.70 111Q743.80 115.60 743.80 123.60L743.80 123.60Q743.80 132 749.60 136.90Q755.40 141.80 765.60 141.80ZM941 156.40L906 156.40Q895.80 156.40 888.20 152.30Q880.60 148.20 876.30 140.60Q872 133 872 123L872 123L872 30L836 30L836 10.40L893.60 10.40L893.60 123Q893.60 129.40 897.20 133.10Q900.80 136.80 907 136.80L907 136.80L941 136.80L941 156.40Z" fill="#1A1B22" transform="translate(775.80, 0)"></path>
  </g>
</svg>